<mxfile host="65bd71144e">
    <diagram id="AFEa_xKkmTBkrF3nx_TY" name="Page-1">
        <mxGraphModel dx="177" dy="240" grid="1" gridSize="10" guides="1" tooltips="1" connect="1" arrows="1" fold="1" page="1" pageScale="1" pageWidth="827" pageHeight="1169" math="0" shadow="0">
            <root>
                <mxCell id="0"/>
                <mxCell id="1" parent="0"/>
                <mxCell id="2" value="" style="rounded=0;whiteSpace=wrap;html=1;" parent="1" vertex="1">
                    <mxGeometry x="10" y="10" width="120" height="220" as="geometry"/>
                </mxCell>
                <mxCell id="3" value="" style="rounded=0;whiteSpace=wrap;html=1;" parent="1" vertex="1">
                    <mxGeometry x="10" y="210" width="120" height="20" as="geometry"/>
                </mxCell>
                <mxCell id="4" value="" style="rounded=0;whiteSpace=wrap;html=1;" parent="1" vertex="1">
                    <mxGeometry x="10" y="10" width="120" height="40" as="geometry"/>
                </mxCell>
                <mxCell id="5" value="" style="rounded=0;whiteSpace=wrap;html=1;" parent="1" vertex="1">
                    <mxGeometry x="20" y="20" width="80" height="10" as="geometry"/>
                </mxCell>
                <mxCell id="6" value="" style="rounded=0;whiteSpace=wrap;html=1;" parent="1" vertex="1">
                    <mxGeometry x="110" y="20" width="10" height="10" as="geometry"/>
                </mxCell>
                <mxCell id="8" value="" style="endArrow=none;html=1;" parent="1" edge="1">
                    <mxGeometry width="50" height="50" relative="1" as="geometry">
                        <mxPoint x="20" y="42" as="sourcePoint"/>
                        <mxPoint x="100" y="42" as="targetPoint"/>
                    </mxGeometry>
                </mxCell>
                <mxCell id="9" value="" style="ellipse;whiteSpace=wrap;html=1;aspect=fixed;fillColor=#FFFFFF;" parent="1" vertex="1">
                    <mxGeometry x="25" y="39" width="5" height="5" as="geometry"/>
                </mxCell>
                <mxCell id="10" value="Ort / PLZ" style="text;html=1;strokeColor=none;fillColor=none;align=center;verticalAlign=middle;whiteSpace=wrap;rounded=0;fontSize=6;" parent="1" vertex="1">
                    <mxGeometry x="20" y="20" width="80" height="10" as="geometry"/>
                </mxCell>
                <mxCell id="11" value="&lt;p style=&quot;line-height: 100%; font-size: 4px;&quot;&gt;&lt;font style=&quot;font-size: 4px;&quot;&gt;Radius&lt;/font&gt;&lt;/p&gt;" style="text;html=1;strokeColor=none;fillColor=none;align=left;verticalAlign=middle;whiteSpace=wrap;rounded=0;fontSize=4;" parent="1" vertex="1">
                    <mxGeometry x="18" y="35" width="80" as="geometry"/>
                </mxCell>
                <mxCell id="12" value="15 KM" style="text;html=1;strokeColor=none;fillColor=none;align=center;verticalAlign=middle;whiteSpace=wrap;rounded=0;fontSize=4;" parent="1" vertex="1">
                    <mxGeometry x="107.5" y="40.5" width="15" height="3.5" as="geometry"/>
                </mxCell>
                <mxCell id="14" value="" style="rounded=0;whiteSpace=wrap;html=1;fontSize=4;fillColor=none;" parent="1" vertex="1">
                    <mxGeometry x="10" y="210" width="30" height="20" as="geometry"/>
                </mxCell>
                <mxCell id="15" value="" style="rounded=0;whiteSpace=wrap;html=1;fontSize=4;fillColor=none;" parent="1" vertex="1">
                    <mxGeometry x="40" y="210" width="30" height="20" as="geometry"/>
                </mxCell>
                <mxCell id="16" value="" style="rounded=0;whiteSpace=wrap;html=1;fontSize=4;fillColor=none;" parent="1" vertex="1">
                    <mxGeometry x="70" y="210" width="30" height="20" as="geometry"/>
                </mxCell>
                <mxCell id="17" value="" style="rounded=0;whiteSpace=wrap;html=1;fontSize=4;fillColor=none;" parent="1" vertex="1">
                    <mxGeometry x="100" y="210" width="30" height="20" as="geometry"/>
                </mxCell>
                <mxCell id="19" value="" style="rounded=0;whiteSpace=wrap;html=1;fontSize=4;fillColor=none;" parent="1" vertex="1">
                    <mxGeometry x="10" y="50" width="120" height="20" as="geometry"/>
                </mxCell>
                <mxCell id="20" value="" style="rounded=0;whiteSpace=wrap;html=1;fontSize=4;fillColor=none;" parent="1" vertex="1">
                    <mxGeometry x="15" y="78" width="110" height="20" as="geometry"/>
                </mxCell>
                <mxCell id="21" value="" style="rounded=0;whiteSpace=wrap;html=1;fontSize=4;fillColor=none;" parent="1" vertex="1">
                    <mxGeometry x="15" y="78" width="20" height="20" as="geometry"/>
                </mxCell>
                <mxCell id="22" value="Aral (oder so)" style="text;html=1;strokeColor=none;fillColor=none;align=left;verticalAlign=middle;whiteSpace=wrap;rounded=0;fontSize=4;" parent="1" vertex="1">
                    <mxGeometry x="35" y="78" width="75" height="13" as="geometry"/>
                </mxCell>
                <mxCell id="23" value="MusterstraÃŸe 123, 12345 Musterstadt" style="text;html=1;strokeColor=none;fillColor=none;align=left;verticalAlign=middle;whiteSpace=wrap;rounded=0;fontSize=4;" parent="1" vertex="1">
                    <mxGeometry x="35" y="90" width="75" height="8" as="geometry"/>
                </mxCell>
                <mxCell id="24" value="1,79" style="text;html=1;strokeColor=none;fillColor=none;align=center;verticalAlign=middle;whiteSpace=wrap;rounded=0;fontSize=4;" parent="1" vertex="1">
                    <mxGeometry x="110" y="83" width="10" height="10" as="geometry"/>
                </mxCell>
                <mxCell id="25" value="" style="rounded=0;whiteSpace=wrap;html=1;" vertex="1" parent="1">
                    <mxGeometry x="15" y="55" width="55" height="10" as="geometry"/>
                </mxCell>
                <mxCell id="26" value="" style="rounded=0;whiteSpace=wrap;html=1;" vertex="1" parent="1">
                    <mxGeometry x="70" y="55" width="52.5" height="10" as="geometry"/>
                </mxCell>
                <mxCell id="27" value="Sprittsorte" style="text;html=1;strokeColor=none;fillColor=none;align=center;verticalAlign=middle;whiteSpace=wrap;rounded=0;fontSize=6;" vertex="1" parent="1">
                    <mxGeometry x="15" y="55" width="55" height="10" as="geometry"/>
                </mxCell>
                <mxCell id="28" value="Sortierung" style="text;html=1;strokeColor=none;fillColor=none;align=center;verticalAlign=middle;whiteSpace=wrap;rounded=0;fontSize=6;" vertex="1" parent="1">
                    <mxGeometry x="70" y="55" width="52" height="10" as="geometry"/>
                </mxCell>
            </root>
        </mxGraphModel>
    </diagram>
</mxfile>